Gangs of Oz - Season 1 "COMPLETE"


This contains full DVD resolution (720x576) quality using H.264/AVC encoding and with the 2 channel DVD audio (256 Kbps) in an "MKV" file container.


Summary:
Every day on our streets brutal wars are fought between powerful crime dynasties. Murder, intimidation and extortion.... Just another day in the office for these gangs, fiercely protecting their multi-million dollar businesses. Gangs of Oz Season 1 is a 5 part docu-drama series looking at different criminal gangs operating in Australia over the last few decades. Each episodes examines the "families" of crime, that operate with a deadly code of loyalty and secrecy.



File listing:
Gangs of Oz S01E01 - Middle Eastern Gangs - The Power, The Passion, The Betrayal.mkv
Gangs of Oz S01E02 - The Aussie Mafia - Inside The Family.mkv
Gangs of Oz S01E03 - The Bikies - Inside The Band Of Brothers.mkv
Gangs of Oz S01E04 - The Gangland Wars - The Tale of Three Gangs.mkv
Gangs of Oz S01E05 - Asian Gangs - Chasing The Dragon Tony Hoang.mkv




General
Format                         : Matroska
Format version                 : Version 2
File size                      : 648 MiB
Duration                       : 44mn 39s
Overall bit rate               : 2 028 Kbps
Writing application            : Lavf52.104.0
Writing library                : Lavf52.104.0

Video
ID                             : 1
Format                         : AVC
Format/Info                    : Advanced Video Codec
Format profile                 : Main@L3.0
Format settings, CABAC         : Yes
Format settings, ReFrames      : 2 frames
Codec ID                       : V_MPEG4/ISO/AVC
Duration                       : 44mn 39s
Bit rate                       : 1 799 Kbps
Width                          : 720 pixels
Height                         : 576 pixels
Display aspect ratio           : 16:9
Frame rate mode                : Constant
Frame rate                     : 25.000 fps
Standard                       : PAL
Color space                    : YUV
Chroma subsampling             : 4:2:0
Bit depth                      : 8 bits
Scan type                      : Progressive
Bits/(Pixel*Frame)             : 0.174
Stream size                    : 553 MiB (85%)
Writing library                : x264 core 100
Language                       : English
Default                        : Yes
Forced                         : No

Audio
ID                             : 2
Format                         : AC-3
Format/Info                    : Audio Coding 3
Mode extension                 : CM (complete main)
Format settings, Endianness    : Big
Codec ID                       : A_AC3
Duration                       : 44mn 39s
Bit rate mode                  : Constant
Bit rate                       : 256 Kbps
Channel(s)                     : 2 channels
Channel positions              : Front: L R
Sampling rate                  : 48.0 KHz
Bit depth                      : 16 bits
Compression mode               : Lossy
Stream size                    : 81.8 MiB (13%)
Language                       : English
Default                        : Yes
Forced                         : No